<?xml version="1.0" encoding="UTF-8"?>
<svg width="800px" height="800px" viewBox="0 0 24 24" version="1.1" xmlns="http://www.w3.org/2000/svg">
    <title>篮球</title>
    <g stroke="none" stroke-width="1" fill="none" fill-rule="evenodd">
        <circle stroke="#FF6B00" stroke-width="2" cx="12" cy="12" r="10"/>
        <path d="M12,2 C14.3,2 16.4,2.8 18.1,4.1 C17.4,5 16.9,5.7 16.5,6.3 C15.3,5.3 13.7,4.7 12,4.7 C10.3,4.7 8.7,5.3 7.5,6.3 C7.1,5.7 6.6,5 5.9,4.1 C7.6,2.8 9.7,2 12,2 Z" fill="#FF6B00"/>
        <path d="M4.1,5.9 C5,6.6 5.7,7.1 6.3,7.5 C5.3,8.7 4.7,10.3 4.7,12 C4.7,13.7 5.3,15.3 6.3,16.5 C5.7,16.9 5,17.4 4.1,18.1 C2.8,16.4 2,14.3 2,12 C2,9.7 2.8,7.6 4.1,5.9 Z" fill="#FF6B00"/>
        <path d="M19.9,5.9 C21.2,7.6 22,9.7 22,12 C22,14.3 21.2,16.4 19.9,18.1 C19,17.4 18.3,16.9 17.7,16.5 C18.7,15.3 19.3,13.7 19.3,12 C19.3,10.3 18.7,8.7 17.7,7.5 C18.3,7.1 19,6.6 19.9,5.9 Z" fill="#FF6B00"/>
        <path d="M12,19.3 C13.7,19.3 15.3,18.7 16.5,17.7 C16.9,18.3 17.4,19 18.1,19.9 C16.4,21.2 14.3,22 12,22 C9.7,22 7.6,21.2 5.9,19.9 C6.6,19 7.1,18.3 7.5,17.7 C8.7,18.7 10.3,19.3 12,19.3 Z" fill="#FF6B00"/>
    </g>
</svg> 